<?xml version="1.0" standalone="no"?>
<!DOCTYPE svg PUBLIC "-//W3C//DTD SVG 20010904//EN"
 "http://www.w3.org/TR/2001/REC-SVG-20010904/DTD/svg10.dtd">
<svg version="1.0" xmlns="http://www.w3.org/2000/svg"
 width="1500.000000pt" height="782.000000pt" viewBox="0 0 1500.000000 782.000000"
 preserveAspectRatio="xMidYMid meet">
<metadata>
Created by potrace 1.16, written by Peter Selinger 2001-2019
</metadata>
<g transform="translate(0.000000,782.000000) scale(0.100000,-0.100000)"
fill="#000000" stroke="none">
<path d="M8290 7171 c-44 -10 -305 -138 -321 -157 -7 -9 -9 -31 -5 -59 5 -42
4 -46 -19 -55 -13 -5 -29 -18 -35 -29 -14 -27 18 -61 59 -61 48 0 92 -12 98
-27 3 -8 -11 -38 -31 -67 -20 -29 -36 -55 -36 -59 0 -3 15 -22 34 -42 37 -39
47 -82 35 -148 -8 -48 -2 -74 19 -82 10 -4 53 -6 98 -6 l80 1 17 -35 c9 -20
17 -40 17 -46 0 -17 -211 -222 -296 -286 -100 -76 -131 -111 -174 -197 -28
-58 -34 -83 -38 -153 -7 -125 17 -125 -330 -2 -30 10 -75 21 -102 25 -45 6
-53 11 -118 88 -39 44 -79 92 -90 106 -16 20 -29 25 -68 25 -47 1 -50 3 -73
46 -13 24 -34 60 -47 79 -21 32 -23 39 -12 68 19 49 2 68 -57 64 -42 -2 -52 2
-87 34 -55 50 -128 94 -154 94 -26 0 -94 27 -94 38 0 8 -26 42 -82 109 -21 24
-38 48 -38 53 0 5 -16 18 -35 30 -38 23 -65 17 -85 -20 -18 -33 -11 -57 33
-112 24 -29 48 -60 53 -69 12 -22 86 -110 147 -175 35 -38 47 -59 47 -82 0
-36 -13 -48 -30 -27 -16 20 -56 19 -64 -1 -7 -19 5 -43 33 -66 12 -10 21 -26
21 -36 0 -20 -31 -52 -67 -71 -13 -6 -80 -58 -149 -114 -194 -156 -535 -418
-620 -477 -12 -8 -39 -28 -59 -45 -33 -26 -44 -29 -98 -27 -67 3 -110 23 -127
60 -25 56 -40 181 -40 339 l0 163 43 -6 c74 -10 76 -4 87 272 5 132 10 345 10
474 0 197 -3 239 -16 258 -19 27 -49 28 -91 2 -35 -21 -47 -14 -38 23 5 19 1
29 -16 41 -13 9 -31 16 -40 16 -29 0 -136 -78 -147 -108 -27 -67 -26 -78 15
-117 l38 -37 -2 -147 c-4 -281 -24 -946 -29 -974 -16 -81 -125 -203 -227 -255
-81 -41 -132 -49 -342 -57 -93 -3 -240 -9 -325 -14 -85 -5 -171 -8 -190 -8
-19 1 -107 -4 -195 -11 -88 -6 -275 -16 -415 -22 -417 -17 -459 -19 -524 -29
-33 -6 -146 -12 -251 -16 -104 -3 -201 -8 -214 -12 -23 -6 -24 -5 -17 33 18
98 18 120 1 134 -25 21 -114 25 -157 7 -46 -20 -57 -52 -35 -109 18 -45 15
-58 -14 -58 -31 0 -66 -46 -89 -118 -54 -167 -61 -211 -66 -412 -6 -257 -6
-257 -52 -275 -48 -21 -72 -43 -72 -70 0 -13 -9 -26 -22 -32 -27 -12 -48 -7
-48 12 0 23 -35 35 -105 35 -71 0 -88 -11 -137 -83 -14 -19 -29 -27 -70 -32
-29 -4 -87 -18 -128 -30 -41 -13 -131 -40 -200 -59 -122 -36 -280 -106 -377
-168 -130 -84 -150 -98 -176 -126 -21 -21 -28 -38 -25 -58 3 -25 11 -32 63
-51 88 -32 123 -30 176 12 59 46 218 131 271 146 118 32 285 25 373 -16 52
-24 105 -82 105 -117 0 -28 -21 -39 -105 -53 -118 -19 -358 -127 -481 -216
-150 -108 -344 -309 -439 -454 -42 -63 -99 -196 -147 -339 -45 -133 -51 -162
-59 -280 -16 -235 9 -460 73 -646 22 -63 52 -137 66 -165 64 -122 136 -242
170 -283 60 -73 231 -239 307 -297 125 -96 329 -188 541 -245 104 -28 137 -32
264 -34 227 -4 495 26 570 64 19 9 66 27 103 40 37 12 81 33 96 46 16 13 33
24 39 24 5 0 56 28 113 63 229 137 401 316 519 537 14 25 30 52 36 60 12 14
32 69 68 186 12 39 32 67 96 132 44 45 101 113 126 153 53 82 118 217 133 274
5 22 15 58 20 80 6 22 11 57 11 77 0 26 5 38 18 42 55 17 124 27 214 31 57 2
149 7 205 11 76 4 119 2 176 -11 67 -15 80 -22 116 -61 39 -43 62 -52 90 -35
17 11 58 -3 86 -29 11 -10 38 -23 60 -29 27 -7 59 -29 97 -66 46 -45 62 -55
90 -55 22 0 42 7 53 20 10 12 34 30 52 41 33 21 42 21 326 15 225 -5 4016 -20
4215 -17 37 1 42 -2 42 -21 1 -47 78 -206 150 -308 80 -114 209 -249 258 -269
30 -12 42 -32 72 -111 29 -76 127 -234 200 -322 93 -112 112 -130 260 -247
171 -136 361 -222 610 -277 72 -16 125 -19 340 -18 140 0 275 5 300 11 167 38
216 56 406 144 60 29 221 131 279 179 36 30 100 96 158 163 23 27 55 63 70 80
15 17 48 68 73 112 24 44 49 87 54 95 20 31 69 147 89 210 45 145 63 275 61
457 0 94 -5 198 -11 230 -6 32 -13 76 -16 98 -9 69 -91 299 -138 391 -56 109
-82 151 -117 193 -16 18 -28 36 -28 39 0 4 -20 30 -45 57 -53 59 -61 107 -22
143 20 19 34 21 199 23 151 2 180 0 202 -15 36 -23 76 -90 98 -163 21 -70 30
-77 106 -87 74 -9 89 6 72 72 -7 26 -31 83 -53 127 -40 80 -148 248 -167 260
-6 4 -22 23 -35 43 -32 50 -194 224 -280 301 -39 35 -102 84 -140 111 -39 26
-77 55 -84 64 -8 10 -45 35 -82 57 -38 23 -71 49 -74 59 -8 24 2 64 31 125
109 236 143 329 182 510 41 190 54 272 57 368 4 124 4 127 17 127 6 0 21 -9
33 -20 19 -18 119 -45 134 -36 3 2 83 7 176 11 94 3 229 10 300 15 72 5 204
14 295 20 91 6 212 15 270 20 58 6 128 10 155 11 57 0 121 23 160 57 51 45 63
86 102 377 25 185 25 476 0 527 -32 64 -51 68 -385 79 -689 24 -1036 7 -1301
-65 -29 -8 -79 -18 -110 -22 -31 -3 -92 -15 -136 -25 -118 -28 -130 -26 -161
22 -14 22 -38 48 -55 57 -16 10 -31 22 -33 29 -9 22 14 78 49 122 20 26 38 61
42 83 3 22 11 42 17 44 7 3 31 -2 55 -11 24 -8 58 -15 75 -15 55 0 98 60 64
88 -7 5 -52 15 -100 22 -51 7 -92 18 -99 27 -10 11 -6 33 19 108 45 132 42
158 -21 198 -107 69 -450 99 -600 53 -73 -22 -77 -28 -77 -113 0 -84 -17 -166
-34 -160 -6 2 -14 34 -18 71 -8 84 -43 158 -106 224 -57 61 -73 63 -342 60
l-184 -2 -52 -54 c-116 -123 -146 -216 -90 -282 25 -31 28 -40 22 -83 -3 -27
-9 -54 -14 -61 -17 -23 -33 -87 -27 -106 3 -10 15 -22 26 -25 33 -11 42 -41
28 -97 -13 -48 -12 -51 10 -69 27 -22 54 -24 101 -7 31 10 35 9 57 -18 12 -16
23 -34 23 -41 0 -7 -21 -27 -47 -44 -91 -62 -130 -100 -189 -180 -32 -45 -73
-98 -89 -119 -17 -20 -53 -76 -80 -124 -36 -65 -60 -95 -97 -121 -26 -19 -53
-35 -58 -35 -6 0 -10 -4 -10 -8 0 -17 -79 -45 -180 -62 -58 -10 -119 -24 -137
-32 -39 -17 -108 -96 -123 -143 -6 -19 -15 -35 -18 -36 -4 0 -155 -2 -337 -4
-181 -2 -399 -6 -482 -10 -180 -9 -169 -21 -123 138 16 57 34 127 40 155 16
86 45 133 109 178 60 43 71 64 71 136 0 50 -38 125 -71 139 -50 20 -141 6
-219 -35 -47 -24 -71 -32 -76 -24 -4 6 -19 52 -34 102 -15 50 -42 127 -60 171
-18 44 -44 109 -58 145 -13 36 -33 84 -44 108 -31 66 -27 101 17 174 21 34 46
72 55 83 32 36 80 137 80 168 0 16 -9 44 -19 61 -23 36 -123 119 -195 161 -46
27 -56 29 -180 31 -72 2 -147 -1 -166 -5z m-2834 -496 c4 -8 6 -25 6 -37 -1
-13 -2 -195 -4 -405 -4 -401 -6 -413 -49 -413 -38 0 -41 37 -34 440 l7 385 27
22 c31 27 40 28 47 8z m8429 -485 c242 -12 285 -17 285 -30 0 -12 -57 -19
-250 -30 -174 -10 -329 -29 -445 -54 -150 -32 -612 -61 -646 -40 -6 3 -91 9
-190 13 -108 3 -179 10 -180 16 -1 11 98 39 216 60 44 7 132 23 195 35 156 29
162 29 350 38 200 9 374 7 665 -8z m-7162 -389 c57 -39 72 -58 91 -116 20 -62
68 -123 112 -141 18 -8 74 -20 125 -29 109 -17 139 -38 139 -95 0 -34 -4 -39
-46 -60 -51 -27 -81 -63 -91 -110 -8 -41 -25 -47 -73 -25 -33 15 -56 17 -137
11 -54 -3 -208 -6 -343 -7 -135 0 -324 -4 -420 -9 -96 -5 -177 -7 -180 -3 -7
7 71 74 139 120 48 32 104 78 186 152 17 15 64 52 105 81 78 55 123 92 244
197 39 34 79 63 89 63 10 0 37 -13 60 -29z m-1511 -532 c46 -21 73 -75 78
-163 6 -89 -7 -158 -40 -210 -27 -45 -99 -110 -147 -134 -83 -42 -227 -80
-368 -98 -134 -17 -535 -45 -546 -39 -4 3 -38 1 -76 -5 -37 -5 -214 -12 -393
-15 -179 -2 -379 -6 -445 -9 -66 -2 -259 -7 -430 -10 -170 -4 -372 -9 -447
-13 -154 -6 -168 -2 -168 51 1 136 33 154 283 156 67 1 235 8 372 15 138 7
310 14 384 15 74 0 137 2 140 4 3 2 157 7 341 11 184 4 337 8 340 10 3 1 66 6
140 9 269 12 357 29 478 90 63 33 162 115 162 136 0 11 112 70 133 70 16 0 56
30 122 92 55 53 55 52 87 37z m6583 -1048 c35 -20 43 -46 18 -59 -10 -5 -108
-12 -218 -15 -126 -4 -224 -11 -265 -21 -140 -33 -421 -146 -571 -229 -132
-73 -178 -107 -307 -224 -97 -89 -117 -103 -147 -103 -28 0 -36 4 -41 24 -10
42 24 91 129 185 233 207 477 340 747 410 230 59 578 76 655 32z m240 -136
c151 -30 274 -70 395 -130 118 -57 193 -98 200 -105 3 -4 32 -25 65 -48 119
-82 267 -211 325 -281 117 -143 194 -252 240 -341 52 -102 62 -146 34 -157
-26 -10 -43 7 -72 72 -14 33 -43 86 -64 118 -21 32 -38 61 -38 64 0 5 -38 52
-87 108 -193 217 -192 216 -338 327 -208 158 -378 232 -705 308 -84 20 -121
22 -310 21 -220 -1 -254 -5 -470 -58 -132 -32 -322 -117 -445 -199 -272 -180
-465 -401 -615 -704 -89 -179 -141 -382 -157 -614 -5 -72 -12 -111 -20 -113
-20 -7 -73 86 -73 126 0 169 146 646 234 764 13 18 26 39 29 47 11 28 148 195
202 245 253 234 310 276 510 374 276 136 509 195 790 200 60 1 111 3 113 5 8
8 148 -8 257 -29z m-9752 -54 c16 -6 40 -11 55 -11 39 0 292 -65 357 -91 11
-4 45 -17 75 -29 30 -12 75 -32 100 -46 25 -13 81 -42 125 -64 77 -39 259
-176 376 -283 31 -29 87 -79 124 -112 85 -75 229 -223 286 -294 115 -142 403
-418 485 -464 12 -7 53 -34 92 -60 39 -26 99 -59 134 -73 35 -15 81 -36 103
-47 40 -21 130 -55 215 -81 25 -8 81 -20 125 -26 44 -7 98 -18 120 -25 62 -20
183 -24 980 -32 692 -7 3760 -10 3815 -4 14 2 49 0 78 -4 38 -6 52 -12 52 -24
-1 -43 18 -42 -691 -37 -371 3 -771 6 -889 7 -127 0 -219 4 -227 10 -8 7 -19
6 -34 -2 -17 -9 -321 -10 -1313 -5 -1817 9 -1754 7 -1901 45 -66 17 -147 42
-180 56 -33 13 -68 25 -77 25 -10 0 -46 13 -80 29 -35 15 -79 33 -99 40 -19 6
-59 27 -89 46 -30 19 -59 35 -64 35 -5 0 -31 20 -57 45 -26 25 -53 45 -60 45
-43 0 -243 155 -381 296 -42 44 -94 95 -115 114 -21 19 -70 71 -108 115 -94
106 -293 306 -381 380 -258 218 -549 363 -850 424 -183 37 -572 39 -724 3
-193 -45 -228 -56 -296 -88 -39 -19 -78 -34 -87 -34 -31 0 -100 -37 -296 -158
-57 -36 -76 -43 -100 -37 -39 8 -58 30 -42 49 22 27 176 123 262 165 90 43
202 87 254 100 33 9 93 28 140 45 17 6 98 24 180 41 142 29 162 30 365 29 130
-1 226 -6 243 -13z m331 -12 c45 -11 95 -27 111 -34 17 -7 55 -20 85 -30 125
-40 225 -82 273 -113 27 -18 73 -42 101 -54 28 -12 81 -46 117 -75 36 -29 69
-53 72 -53 19 0 199 -151 309 -260 70 -69 151 -148 180 -176 29 -28 80 -80
113 -115 33 -35 78 -77 100 -94 l40 -30 340 4 c187 2 360 5 385 7 50 3 772 10
1965 19 435 3 1020 8 1300 11 281 3 782 7 1113 8 602 3 604 3 623 -18 16 -17
19 -32 17 -90 -3 -60 -6 -71 -23 -76 -11 -3 -31 -13 -45 -22 -23 -15 -108 -17
-960 -22 -514 -2 -1495 -8 -2180 -12 -685 -4 -1486 -7 -1780 -6 -446 2 -539 0
-555 -12 -16 -12 -17 -16 -6 -30 7 -8 23 -18 34 -22 12 -3 33 -17 47 -30 39
-36 194 -108 290 -134 47 -12 99 -28 115 -35 17 -7 53 -16 80 -20 28 -4 75
-13 105 -20 89 -22 482 -37 965 -38 247 0 1189 0 2093 1 904 1 1674 -1 1713
-4 64 -6 72 -10 104 -45 38 -42 44 -64 20 -73 -16 -6 -1499 0 -2405 9 -272 3
-803 7 -1180 10 -689 5 -1088 12 -1100 20 -4 2 -78 13 -166 24 -213 27 -296
51 -499 142 -80 36 -232 140 -361 247 -35 28 -66 52 -70 52 -11 0 -189 189
-236 250 -14 19 -68 78 -120 130 -51 53 -109 114 -128 136 -19 23 -66 67 -105
99 -38 32 -99 86 -135 120 -36 33 -81 72 -100 85 -19 14 -42 32 -51 41 -47 47
-145 108 -296 183 -172 86 -214 103 -316 126 -32 8 -66 19 -75 26 -24 18 -11
17 82 -7z m9221 -477 c55 -12 120 -28 145 -36 132 -44 183 -66 263 -111 49
-28 102 -57 117 -65 16 -8 54 -37 86 -65 31 -27 71 -60 88 -71 17 -12 52 -48
78 -80 26 -33 63 -77 83 -98 47 -52 134 -185 173 -267 72 -149 120 -329 137
-519 8 -88 -11 -383 -29 -445 -48 -168 -73 -233 -127 -340 -34 -66 -69 -129
-79 -140 -10 -11 -31 -41 -46 -66 -70 -112 -249 -277 -409 -376 -120 -74 -367
-159 -536 -183 -46 -7 -160 -9 -285 -6 -193 4 -215 6 -282 30 -41 14 -82 26
-92 26 -45 0 -254 85 -320 130 -14 9 -65 44 -115 76 -82 54 -221 181 -287 262
-53 65 -110 157 -154 251 -25 53 -54 112 -64 132 -10 19 -26 62 -35 95 -9 32
-23 82 -31 109 -8 28 -19 92 -25 143 -14 119 -8 439 10 470 7 13 21 58 32 100
69 263 213 499 424 691 108 99 187 154 308 215 119 60 323 128 452 150 126 21
386 15 520 -12z m-9587 -12 c102 -13 305 -71 390 -112 265 -126 523 -368 657
-617 36 -66 105 -241 129 -326 10 -33 22 -71 28 -85 5 -14 12 -117 15 -230 6
-248 -9 -385 -61 -530 -18 -52 -37 -104 -41 -115 -18 -53 -31 -75 -119 -208
-51 -78 -116 -164 -144 -192 -96 -97 -242 -225 -257 -225 -3 0 -21 -11 -38
-24 -18 -13 -54 -35 -82 -48 -27 -14 -75 -38 -105 -53 -54 -27 -88 -39 -225
-75 -134 -35 -217 -43 -412 -37 -276 7 -400 34 -599 127 -359 168 -660 518
-772 896 -48 161 -57 232 -55 429 2 268 40 413 181 690 41 81 61 112 135 209
36 48 158 169 212 211 28 21 66 53 85 71 21 19 89 56 165 89 72 31 135 60 140
65 6 4 25 11 43 15 18 3 45 13 60 20 15 8 81 25 147 39 97 20 151 25 280 25
88 1 198 -4 243 -9z m1412 -942 c127 1 161 -2 170 -13 7 -8 10 -22 6 -30 -8
-22 -294 -22 -336 0 -28 15 -38 34 -24 48 4 4 11 4 16 1 6 -4 81 -6 168 -6z
m511 -19 c39 -21 59 -38 59 -50 0 -17 -7 -18 -57 -14 -32 2 -110 7 -173 10
-63 3 -119 10 -123 14 -14 14 1 47 26 59 12 6 64 11 116 11 86 1 98 -1 152
-30z m-366 -260 c-10 -57 -69 -228 -101 -291 -49 -97 -99 -171 -152 -227 l-54
-56 7 50 c3 28 8 61 11 75 13 70 16 324 4 385 -9 49 -10 69 -1 78 15 15 81 24
194 26 l99 1 -7 -41z m6223 -151 c5 -13 9 -61 10 -108 2 -97 15 -186 44 -313
11 -48 18 -91 15 -94 -14 -13 -151 129 -219 227 -58 83 -138 248 -138 283 l0
27 140 0 c137 0 141 -1 148 -22z"/>
<path d="M11420 3275 c-8 -2 -49 -9 -90 -15 -101 -17 -271 -73 -350 -117 -293
-161 -507 -435 -585 -749 -24 -92 -27 -129 -28 -258 -1 -263 20 -361 120 -564
75 -154 208 -317 349 -428 40 -31 263 -143 324 -163 154 -49 446 -66 598 -36
333 67 629 280 814 585 47 78 59 107 102 250 45 149 55 386 24 570 -14 84 -68
227 -117 310 -55 92 -181 258 -230 303 -113 104 -334 229 -471 267 -141 39
-374 62 -460 45z m330 -161 c35 -8 72 -22 82 -31 22 -20 24 -73 3 -73 -24 0
-167 41 -197 56 -34 18 -37 51 -5 57 40 8 51 7 117 -9z m338 -143 c20 -10 46
-29 57 -41 11 -12 42 -38 69 -58 61 -44 194 -196 223 -254 106 -212 133 -325
135 -568 1 -75 -4 -117 -15 -145 -9 -22 -21 -60 -27 -84 -6 -24 -25 -71 -41
-104 -16 -33 -29 -64 -29 -68 0 -5 -21 -43 -47 -86 -82 -135 -274 -311 -405
-372 -216 -100 -264 -111 -496 -111 -119 0 -152 4 -247 29 -61 16 -126 35
-145 42 -91 36 -246 142 -305 208 -43 48 -46 56 -31 76 13 18 14 18 42 0 16
-10 54 -39 84 -65 106 -89 115 -94 210 -98 82 -4 88 -3 104 19 24 35 20 47
-25 89 -37 34 -39 38 -25 53 15 14 21 14 74 -11 45 -21 76 -27 145 -30 81 -4
91 -2 127 22 38 25 60 62 43 75 -4 4 -42 13 -83 20 -106 17 -140 44 -110 91 8
13 13 13 39 -3 46 -27 161 -38 271 -25 232 26 385 163 420 377 27 161 -14 323
-111 443 -18 22 -20 30 -10 42 20 24 48 6 76 -47 14 -29 37 -65 50 -82 21 -26
27 -28 52 -20 31 12 41 37 42 115 1 74 -26 130 -99 206 -33 34 -60 67 -60 73
0 24 39 9 64 -24 19 -25 35 -35 55 -35 25 0 70 30 72 48 0 4 2 24 5 44 8 64
-37 123 -141 184 -44 25 -72 65 -59 85 7 12 9 12 52 -10z m-383 -101 c3 -5 20
-10 36 -10 44 0 159 -66 159 -91 0 -27 -27 -35 -64 -20 -17 7 -65 21 -106 30
-88 21 -129 39 -144 64 -8 13 -8 20 4 27 20 13 107 13 115 0z m-45 -738 c13
-29 13 -97 0 -122 -11 -21 -82 -60 -111 -60 -27 0 -69 23 -95 52 -43 47 -37
144 10 170 11 7 41 15 66 18 52 7 112 -20 130 -58z m-1103 -39 c15 -14 26 -50
42 -148 16 -93 32 -151 57 -204 19 -40 37 -90 40 -111 5 -33 3 -40 -16 -50
-29 -15 -37 -7 -84 85 -46 89 -96 284 -96 376 0 61 2 69 19 69 10 0 28 -8 38
-17z m1370 -71 c3 -14 1 -46 -5 -71 -6 -25 -13 -58 -16 -73 -4 -16 -18 -34
-34 -42 -15 -8 -51 -30 -81 -50 -56 -38 -100 -46 -121 -21 -14 17 -7 45 12 45
26 1 87 36 108 63 12 15 33 55 47 89 29 72 49 99 69 91 8 -3 17 -17 21 -31z
m-1084 -43 c30 -16 37 -28 37 -67 0 -40 38 -136 77 -194 83 -123 74 -184 -16
-103 -74 67 -176 308 -151 355 12 23 23 25 53 9z m296 -95 c15 -9 40 -39 56
-67 15 -29 39 -62 52 -74 13 -12 23 -31 23 -41 0 -11 7 -25 15 -32 21 -18 8
-31 -23 -23 -63 15 -123 84 -163 186 -27 67 -14 83 40 51z"/>
<path d="M1789 3240 c-58 -10 -216 -63 -289 -98 -146 -69 -299 -187 -387 -299
-65 -84 -123 -167 -123 -177 0 -3 -15 -31 -34 -63 -19 -32 -51 -110 -72 -173
l-38 -115 -1 -210 c0 -226 9 -288 62 -425 72 -185 136 -282 277 -422 83 -83
124 -115 213 -166 236 -135 355 -164 645 -161 143 1 189 6 263 24 219 56 326
115 518 288 82 74 181 205 227 302 8 17 17 32 21 35 10 10 49 109 49 127 0 11
8 46 19 79 31 98 41 174 41 305 0 279 -113 556 -323 788 -113 124 -270 235
-398 280 -30 10 -86 30 -125 44 -40 14 -106 30 -149 36 -86 12 -326 13 -396 1z
m145 -151 c16 -15 -13 -37 -57 -43 -23 -4 -76 -15 -117 -25 -70 -17 -111 -15
-109 7 1 17 66 56 113 68 52 13 153 9 170 -7z m-575 -236 c12 -22 -6 -57 -53
-102 -55 -53 -88 -177 -57 -215 8 -9 23 -16 35 -16 26 0 66 26 66 43 0 20 143
147 164 147 3 0 6 -16 6 -36 0 -31 -9 -44 -63 -97 -74 -72 -99 -110 -121 -189
-20 -71 -20 -108 1 -152 20 -42 39 -51 67 -32 22 14 38 46 71 139 18 50 42 70
78 65 34 -5 33 -43 -6 -122 -94 -192 -101 -350 -23 -479 35 -58 52 -76 116
-124 109 -82 256 -111 393 -79 74 17 107 10 107 -23 0 -38 -27 -46 -153 -46
-100 -1 -122 -3 -131 -17 -14 -24 6 -64 46 -88 62 -38 115 -48 228 -41 125 8
140 6 140 -23 0 -47 -20 -58 -116 -63 -99 -5 -123 -17 -105 -52 33 -62 207
-67 380 -11 70 22 98 27 112 19 24 -12 24 -17 0 -53 -21 -32 -95 -66 -254
-115 -90 -28 -111 -31 -245 -31 -152 -1 -301 20 -374 53 -18 9 -49 20 -69 25
-44 12 -158 77 -214 123 -63 52 -180 173 -223 232 -108 145 -177 347 -192 557
-12 169 21 317 110 499 74 151 154 259 225 302 37 23 42 23 54 2z m593 3 c20
-14 20 -14 -1 -35 -12 -12 -33 -21 -48 -21 -16 0 -53 -7 -83 -16 -84 -24 -106
-27 -128 -15 -27 14 -21 30 25 61 45 31 58 34 145 37 47 2 76 -2 90 -11z m38
-257 c15 -27 -3 -49 -39 -49 -14 0 -59 -7 -99 -17 -53 -12 -78 -14 -90 -6 -40
25 -3 49 118 78 79 19 98 18 110 -6z m74 -439 c15 -5 32 -24 41 -47 14 -34 14
-41 -2 -85 -12 -34 -24 -50 -40 -54 -12 -3 -28 -12 -34 -20 -14 -17 -94 -10
-118 10 -27 21 -40 69 -33 125 7 50 9 54 42 66 43 16 110 18 144 5z m-345 -26
c15 -19 21 -41 21 -76 0 -47 9 -76 34 -105 50 -60 93 -94 130 -104 55 -15 70
-23 74 -42 5 -22 -55 -39 -96 -27 -134 38 -222 156 -222 296 0 88 20 108 59
58z m711 -410 c0 -8 -4 -14 -10 -14 -5 0 -12 -10 -15 -23 -4 -16 -28 -35 -76
-61 -76 -41 -103 -41 -121 0 -14 31 9 58 61 74 20 6 45 15 56 20 68 29 105 30
105 4z"/>
</g>
</svg>
